<?xml version="1.0" standalone="no"?>
<!DOCTYPE svg PUBLIC "-//W3C//DTD SVG 20010904//EN"
 "http://www.w3.org/TR/2001/REC-SVG-20010904/DTD/svg10.dtd">
<svg version="1.0" xmlns="http://www.w3.org/2000/svg"
 width="512.000000pt" height="512.000000pt" viewBox="0 0 512.000000 512.000000"
 preserveAspectRatio="xMidYMid meet">

<g transform="translate(0.000000,512.000000) scale(0.100000,-0.100000)"
fill="#000000" stroke="none">
<path d="M1080 4080 l0 -230 458 0 c435 0 458 1 486 19 16 11 35 30 42 43 19
34 17 99 -5 133 -18 29 -18 31 1 63 29 48 21 133 -16 170 l-26 27 -470 3 -470
3 0 -231z m854 118 c20 -28 20 -33 0 -52 -13 -14 -54 -16 -298 -16 l-282 0
-49 -50 -49 -50 331 0 c288 0 334 -2 347 -16 20 -20 20 -38 0 -58 -13 -14 -61
-16 -365 -16 l-349 0 0 140 0 140 349 0 350 0 15 -22z"/>
<path d="M2150 4265 l-44 -45 217 0 217 0 0 -185 0 -185 75 0 75 0 0 185 0
185 196 0 197 0 48 45 48 45 -492 0 -493 0 -44 -45z"/>
<path d="M3221 4292 c-71 -36 -95 -116 -57 -189 34 -67 39 -68 456 -71 248 -2
378 -7 387 -14 16 -13 17 -50 1 -66 -9 -9 -110 -12 -394 -12 l-382 0 -36 -45
-37 -45 461 0 c509 0 504 -1 536 63 39 74 16 149 -57 192 -32 19 -55 20 -409
23 -246 2 -379 7 -387 14 -15 12 -17 37 -3 58 8 13 67 16 401 20 l391 5 36 43
35 42 -454 0 c-412 0 -457 -2 -488 -18z"/>
<path d="M1080 3405 l0 -195 69 0 c275 0 664 -111 913 -260 105 -62 275 -191
284 -214 3 -7 -22 -52 -55 -101 -33 -48 -62 -92 -64 -98 -2 -6 -41 22 -88 62
-276 241 -586 361 -936 361 l-123 0 0 -202 0 -203 113 -2 c132 -2 229 -19 350
-63 153 -56 337 -183 442 -305 l45 -53 -40 -105 c-164 -438 -246 -879 -238
-1287 l3 -165 200 -3 200 -2 3 127 c6 264 38 538 89 773 26 118 28 123 39 94
19 -47 82 -337 103 -479 24 -153 41 -341 41 -442 l0 -73 193 0 194 0 6 163 c4
89 15 224 26 299 34 235 112 578 124 548 13 -30 49 -209 68 -333 26 -170 49
-437 49 -569 l0 -108 199 0 199 0 8 88 c9 109 -10 414 -36 587 -40 261 -106
516 -194 753 -25 68 -46 127 -46 131 0 5 30 41 66 80 131 141 311 252 496 305
103 30 273 50 340 41 l48 -7 0 206 0 206 -127 0 c-364 0 -694 -131 -956 -379
-31 -30 -59 -52 -61 -50 -3 2 -34 49 -71 103 l-66 99 28 24 c144 121 251 192
389 259 219 106 501 178 747 191 l117 6 0 194 0 193 -157 0 c-312 -1 -587 -66
-869 -208 -158 -80 -403 -250 -483 -336 -14 -14 -28 -26 -33 -26 -4 0 -57 40
-116 88 -131 108 -180 143 -305 216 -301 177 -625 265 -974 266 l-153 0 0
-195z m1593 -1077 c25 -40 55 -94 68 -120 l22 -46 -51 -114 c-28 -62 -60 -135
-71 -163 -16 -42 -20 -47 -27 -30 -18 51 -89 215 -111 258 l-24 48 42 77 c42
77 96 162 104 162 2 0 24 -33 48 -72z"/>
</g>
</svg>
