<?xml version="1.0" standalone="no"?>
<!DOCTYPE svg PUBLIC "-//W3C//DTD SVG 20010904//EN"
 "http://www.w3.org/TR/2001/REC-SVG-20010904/DTD/svg10.dtd">
<svg version="1.0" xmlns="http://www.w3.org/2000/svg"
 width="847.000000pt" height="1024.000000pt" viewBox="0 0 847.000000 1024.000000"
 preserveAspectRatio="xMidYMid meet">
<metadata>
Created by potrace 1.15, written by Peter Selinger 2001-2017
</metadata>
<g transform="translate(0.000000,1024.000000) scale(0.100000,-0.100000)"
fill="#000000" stroke="none">
<path d="M0 9625 l0 -615 1288 2 1287 3 57 23 c157 64 240 227 194 385 -18 63
-103 165 -156 187 -16 7 -30 15 -29 19 0 3 21 20 47 36 26 17 64 55 86 87 33
49 39 66 44 127 l5 71 577 0 578 0 6 -31 c3 -17 6 -231 6 -475 l0 -444 234 0
234 0 -6 475 -5 475 520 0 520 0 139 143 139 142 -1335 3 -1335 2 -137 -137
c-115 -115 -138 -134 -143 -117 -35 109 -105 186 -203 226 l-57 23 -1277 3
-1278 2 0 -615z m2343 297 c97 -48 64 -128 -62 -152 -33 -6 -339 -10 -790 -11
l-736 0 -105 -131 c-58 -72 -106 -135 -108 -139 -2 -5 382 -9 865 -10 791 0
872 -2 912 -17 24 -9 53 -29 64 -44 17 -23 19 -31 9 -53 -14 -31 -81 -63 -138
-67 -21 -1 -434 -1 -916 0 l-878 2 0 325 0 326 918 -3 917 -3 48 -23z"/>
<path d="M5877 10230 c-104 -26 -197 -104 -244 -205 -25 -54 -28 -71 -28 -165
0 -94 3 -111 27 -160 57 -115 149 -186 273 -209 43 -9 320 -10 997 -5 875 7
940 6 982 -10 116 -44 114 -148 -4 -175 -29 -7 -397 -11 -1062 -11 l-1016 0
-50 -52 c-96 -102 -202 -223 -202 -231 0 -4 579 -6 1288 -5 l1287 3 58 22
c171 65 254 196 245 382 -4 69 -10 98 -33 144 -37 74 -117 148 -193 179 l-57
23 -1005 5 c-936 5 -1007 6 -1037 23 -71 38 -73 101 -3 141 35 21 44 21 1084
21 l1049 0 118 130 c65 72 118 133 119 137 0 13 -265 18 -1390 22 -700 3
-1180 1 -1203 -4z"/>
<path d="M0 7811 l0 -598 113 -7 c850 -51 1540 -210 2191 -508 386 -176 803
-445 1122 -723 l23 -20 -96 -135 c-52 -74 -127 -185 -165 -247 l-71 -111 -121
111 c-498 456 -1041 745 -1721 912 -363 90 -801 145 -1152 145 l-123 0 0 -604
0 -605 53 -5 c28 -3 115 -8 192 -11 526 -20 1044 -153 1455 -372 140 -75 342
-213 465 -316 99 -84 262 -247 341 -342 l42 -50 -50 -125 c-63 -161 -205 -585
-257 -765 -191 -668 -326 -1420 -386 -2150 -30 -370 -36 -494 -42 -888 l-6
-397 575 0 575 0 6 328 c18 877 106 1656 268 2380 18 78 36 142 39 142 9 0 90
-302 134 -500 137 -619 216 -1283 262 -2198 l6 -132 548 0 548 0 6 103 c3 56
11 190 17 297 48 893 173 1725 350 2345 30 104 31 105 45 45 171 -703 274
-1575 291 -2468 l6 -342 574 0 573 0 0 288 c-1 1370 -246 2770 -688 3913 l-49
127 97 109 c420 473 963 772 1640 902 211 41 485 71 646 71 45 0 102 3 128 6
l46 7 0 605 0 605 -217 -6 c-739 -23 -1408 -184 -1968 -476 -310 -162 -557
-336 -824 -582 l-115 -106 -127 191 c-69 105 -144 216 -167 246 l-40 56 96 80
c832 693 1869 1077 3140 1164 85 5 169 10 188 10 l34 0 0 600 0 600 -87 0
c-219 0 -612 -33 -913 -76 -1194 -170 -2286 -667 -3127 -1421 -50 -46 -96 -83
-102 -83 -5 0 -58 43 -118 96 -738 658 -1680 1124 -2708 1338 -399 83 -967
146 -1316 146 l-79 0 0 -599z m4309 -2865 c83 -128 222 -365 261 -446 l22 -45
-90 -185 c-98 -202 -166 -361 -233 -542 -24 -65 -46 -118 -49 -118 -3 0 -27
59 -53 131 -67 183 -124 315 -229 531 l-90 186 67 122 c114 207 290 490 305
490 4 0 44 -56 89 -124z"/>
</g>
</svg>
